<svg width="104" height="34" fill="none" xmlns="http://www.w3.org/2000/svg"><path fill-rule="evenodd" clip-rule="evenodd" d="M25.4747 3.67676h-1.4444s-1.5758 0-2.8889 1.96969L14.3131 15.7576c-.3939.5252-.7878 1.1818-1.1818 1.707-.2626.394-.5252.394-.7879 0-.3939-.5252-.7878-1.1818-1.1818-1.707L4.33333 5.64645C3.0202 3.67676 1.44445 3.67676 1.44445 3.67676H0v.52525l2.10101 3.15152L10.1111 19.1717c.5253.7879 1.0505 2.101 1.0505 3.5455v9.9798c1.8384 0 2.8889-1.9697 2.8889-4.9899v-4.9899c0-1.5758.5253-2.7576 1.0505-3.5455l7.6162-11.16161 2.4949-3.80808.2626-.52525zM97.4344 12.7373l-.7879 4.8586c1.5757.2626 3.0202-1.1818 3.4145-3.6768l.131-.5252-2.7576-.6566zM95.9899 5.25252c0 1.83839 1.1818 3.02021 2.8889 3.02021 1.7072 0 2.8892-1.18182 2.8892-2.88889 0-1.70707-1.182-3.0202-2.8892-3.0202-1.7071-.13132-2.8889 1.0505-2.8889 2.88888zm8.0101 0c0 3.02021-2.101 4.98988-5.1212 4.98988s-5.1212-2.10099-5.1212-5.12119C93.7576 2.10101 95.8586 0 98.8788 0 101.899.131313 104 2.23232 104 5.25252z" fill="#fff"/><path fill-rule="evenodd" clip-rule="evenodd" d="M97.4343 32.5656V12.7373l2.7577.6566V27.707c0 2.8889-1.1819 4.8586-2.7577 4.8586zM64.606 3.67676l-.7879 4.85858c1.5758.26263 3.0202-1.18181 3.4142-3.67676l.1313-.52526-2.7576-.65656z" fill="#fff"/><path fill-rule="evenodd" clip-rule="evenodd" d="M74.98 15.4949L88.1113 3.67672h-2.3636c-.9192 0-1.7071.26263-2.3637.9192L67.4951 19.1717V4.20198l-2.7576-.65657V32.5656c1.4445 0 2.7576-1.1818 2.7576-2.7576v-7.4848l5.5152-4.9899 11.1616 14.0505c.6566.7879 1.5758 1.3131 2.6263 1.3131h1.8383L74.98 15.4949zM97.4344 32.5658h-.6566s.6566-.9192.6566-4.3334v4.3334zM57.9089 18.2526c0 9.0606-6.303 15.101-15.495 15.101-9.1919 0-15.3636-6.1718-15.3636-15.2324 0-9.06057 6.1717-15.23228 15.4949-15.23228 8.9293.13131 15.3637 6.30302 15.3637 15.36368zm-28.101-.1314c0 7.7475 4.9899 12.8687 12.4747 12.8687 7.4849 0 12.6061-5.1212 12.6061-12.7373 0-7.6162-4.9899-12.86873-12.6061-12.86873-7.4848 0-12.4747 5.12123-12.4747 12.73733z" fill="#fff"/><path fill-rule="evenodd" clip-rule="evenodd" d="M31.5149 18.1211c0 6.697 4.3333 11.1616 10.7677 11.1616 6.5656 0 10.899-4.4646 10.899-11.0303 0-6.5656-4.3334-11.16158-10.899-11.16158-6.4344 0-10.7677 4.46468-10.7677 11.03028z" fill="#E50B14"/><path fill-rule="evenodd" clip-rule="evenodd" d="M59.8787 7.2222L28.7575 28.4949l-.394-.3939L59.2221 6.43433l.6566.78787z" fill="#E50B14"/><path fill-rule="evenodd" clip-rule="evenodd" d="M57.3838 3.93925L29.808 29.6766l-.3939-.3939L56.5959 3.15137l.7879.78788z" fill="#E50B14"/><path fill-rule="evenodd" clip-rule="evenodd" d="M51.212 23.2421s-.1314 0-.1314-.1313c-.9192-.2626-1.707-.5253-2.6262-.7879-.2627-.1313-.5253-.2626-.7879-.3939-1.1818-.7879-2.3636-1.7071-3.5455-2.495l-.1313-.1313c.394-.3939.7879-.6566 1.1818-1.0505.5253-.5252.9192-.9192 1.4445-1.4444.1313-.1313.2626-.394.1313-.6566-.1313-.1313-.1313-.2626-.2626-.3939-.2627-.2627-.5253-.394-.7879-.6566-.2626-.1313-.3939-.1313-.3939.1313 0 .3939-.1314.6566-.394 1.0505-.5252.6566-.9192 1.4445-1.4444 2.101-.1313.1313-.2627.2626-.2627.394-.1313-.1314-.2626-.1314-.3939-.2627 0 0-.1313-.1313-.1313-.2626 0-.6566-.1313-1.3131-.1313-2.101 0-.5253 0-1.0505.1313-1.5758 0-.2626 0-.3939-.2626-.5252-.5253-.394-.7879-.394-1.4445-.1313-.3939.2626-.6565.3939-1.0505.6565-.3939.2627-.9192.394-1.4444.5253h-1.0505c.1313.1313.1313.3939.2626.5252.1313.2627.3939.5253.5252.7879.2627.2626.5253.5253.9192.394.1314 0 .1314 0 .2627-.1313.3939-.2627.7878-.6566 1.1818-.9192.1313-.1314.2626 0 .2626.1313.1313.2626.1313.6565.1313.9192.2626 1.9697.1313 4.0707.1313 6.1717v.2626c-.1313 0-.1313-.1313-.2626-.1313-.2626-.1313-.5252-.2626-.9192-.5253h-.2626c0 .1314.1313.2627.1313.2627.1313.1313.2626.3939.3939.5252.1314.2626.2627.5253.394.7879.1313.3939.3939.6566.6566.9192.1313.2626.3939.2626.6565.1313.394-.1313.6566-.3939.6566-.9192v-4.9899-.3939c.2626.1313.3939.1313.5252.2626.394.3939.9192.7879 1.3132 1.1818.6565.7879 1.3131 1.5758 2.101 2.2323.1313.2627.3939.394.6565.394.9192 0 1.8384.1313 2.8889.1313.2627 0 .5253 0 .9192-.1313 0 .3939.1313.3939.2627.2626z" fill="#fff"/><path fill-rule="evenodd" clip-rule="evenodd" d="M39.6565 18.2525s0-.1313 0 0c-.2627-.1313-.5253-.1313-.6566 0-.1313.1314-.1313.1314-.2626.2627-.5253.2626-.9192.6565-1.4445.9192-.2626.1313-.5252.2626-.7878.2626-.1314 0-.2627.1313-.1314.2626.1314.5253.5253 1.0505 1.0506 1.3131.1313.1314.3939.1314.5252-.1313.2626-.2626.3939-.5252.6566-.6565l.1313.1313c-.7879 1.707-2.101 2.7575-3.8081 3.5454.2626 0 .5252-.1313.7879-.1313 1.1818-.2626 2.2323-.6565 3.0202-1.5757.7879-.9192 1.4444-1.7071 1.5757-2.8889 0-.7879 0-1.0505-.6565-1.3132zM40.1816 11.1616c.1313.5252.394 1.0505.1313 1.5757v.1313h.1314c0-.1313.1313-.1313.1313-.2626.1313-.3939.3939-.5252.7879-.5252.9191-.1313 1.1818-.9192.6565-1.5758-.5252-.65656-1.5757-.91918-2.2323-.65656-.1313 0-.1313.13132 0 .26266.1313.3939.2626.6565.3939 1.0505z" fill="#fff"/><path fill-rule="evenodd" clip-rule="evenodd" d="M31.5149 18.1211c0 6.697 4.3333 11.1616 10.7677 11.1616 6.5656 0 10.899-4.4646 10.899-11.0303 0-6.5656-4.3334-11.16158-10.899-11.16158-6.4344 0-10.7677 4.46468-10.7677 11.03028z" fill="#E50B14"/><path fill-rule="evenodd" clip-rule="evenodd" d="M59.8787 7.2222L28.7575 28.4949l-.394-.3939L59.2221 6.43433l.6566.78787z" fill="#E50B14"/><path fill-rule="evenodd" clip-rule="evenodd" d="M57.3838 3.93925L29.808 29.6766l-.3939-.3939L56.5959 3.15137l.7879.78788z" fill="#E50B14"/><path fill-rule="evenodd" clip-rule="evenodd" d="M51.212 23.2421s-.1314 0-.1314-.1313c-.9192-.2626-1.707-.5253-2.6262-.7879-.2627-.1313-.5253-.2626-.7879-.3939-1.1818-.7879-2.3636-1.7071-3.5455-2.495l-.1313-.1313c.394-.3939.7879-.6566 1.1818-1.0505.5253-.5252.9192-.9192 1.4445-1.4444.1313-.1313.2626-.394.1313-.6566-.1313-.1313-.1313-.2626-.2626-.3939-.2627-.2627-.5253-.394-.7879-.6566-.2626-.1313-.3939-.1313-.3939.1313 0 .3939-.1314.6566-.394 1.0505-.5252.6566-.9192 1.4445-1.4444 2.101-.1313.1313-.2627.2626-.2627.394-.1313-.1314-.2626-.1314-.3939-.2627 0 0-.1313-.1313-.1313-.2626 0-.6566-.1313-1.3131-.1313-2.101 0-.5253 0-1.0505.1313-1.5758 0-.2626 0-.3939-.2626-.5252-.5253-.394-.7879-.394-1.4445-.1313-.3939.2626-.6565.3939-1.0505.6565-.3939.2627-.9192.394-1.4444.5253h-1.0505c.1313.1313.1313.3939.2626.5252.1313.2627.3939.5253.5252.7879.2627.2626.5253.5253.9192.394.1314 0 .1314 0 .2627-.1313.3939-.2627.7878-.6566 1.1818-.9192.1313-.1314.2626 0 .2626.1313.1313.2626.1313.6565.1313.9192.2626 1.9697.1313 4.0707.1313 6.1717v.2626c-.1313 0-.1313-.1313-.2626-.1313-.2626-.1313-.5252-.2626-.9192-.5253h-.2626c0 .1314.1313.2627.1313.2627.1313.1313.2626.3939.3939.5252.1314.2626.2627.5253.394.7879.1313.3939.3939.6566.6566.9192.1313.2626.3939.2626.6565.1313.394-.1313.6566-.3939.6566-.9192v-4.9899-.3939c.2626.1313.3939.1313.5252.2626.394.3939.9192.7879 1.3132 1.1818.6565.7879 1.3131 1.5758 2.101 2.2323.1313.2627.3939.394.6565.394.9192 0 1.8384.1313 2.8889.1313.2627 0 .5253 0 .9192-.1313 0 .3939.1313.3939.2627.2626z" fill="#fff"/><path fill-rule="evenodd" clip-rule="evenodd" d="M39.6565 18.2525s0-.1313 0 0c-.2627-.1313-.5253-.1313-.6566 0-.1313.1314-.1313.1314-.2626.2627-.5253.2626-.9192.6565-1.4445.9192-.2626.1313-.5252.2626-.7878.2626-.1314 0-.2627.1313-.1314.2626.1314.5253.5253 1.0505 1.0506 1.3131.1313.1314.3939.1314.5252-.1313.2626-.2626.3939-.5252.6566-.6565l.1313.1313c-.7879 1.707-2.101 2.7575-3.8081 3.5454.2626 0 .5252-.1313.7879-.1313 1.1818-.2626 2.2323-.6565 3.0202-1.5757.7879-.9192 1.4444-1.7071 1.5757-2.8889 0-.7879 0-1.0505-.6565-1.3132zM40.1816 11.1616c.1313.5252.394 1.0505.1313 1.5757v.1313h.1314c0-.1313.1313-.1313.1313-.2626.1313-.3939.3939-.5252.7879-.5252.9191-.1313 1.1818-.9192.6565-1.5758-.5252-.65656-1.5757-.91918-2.2323-.65656-.1313 0-.1313.13132 0 .26266.1313.3939.2626.6565.3939 1.0505zM97.4344 32.5658h-.6566s.6566-.9192.6566-4.3334v4.3334z" fill="#fff"/></svg>