<svg width="35" height="22" viewBox="0 0 35 22" fill="none" xmlns="http://www.w3.org/2000/svg">
<g id="footer_bottom_one.svg" clip-path="url(#clip0_1_5950)">
<path id="Vector" d="M21.2937 11.4799C21.2937 17.2802 16.595 21.9799 10.7968 21.9799C4.99868 21.9799 0.299988 17.2791 0.299988 11.4799C0.299988 5.68075 4.99984 0.97998 10.7968 0.97998C16.5938 0.97998 21.2937 5.68075 21.2937 11.4799Z" fill="#E20C16"/>
<path id="Vector_2" d="M23.4036 0.97998C21.0495 0.97998 18.8823 1.76434 17.1309 3.07373L17.1393 3.07476C17.4838 3.40758 17.8638 3.64182 18.1568 4.02496L15.9727 4.05962C15.6305 4.40511 15.3186 4.78099 15.0246 5.17162H18.876C19.1689 5.52332 19.4398 5.82896 19.6855 6.2174H14.3264C14.13 6.55551 13.9484 6.90307 13.7899 7.26421H20.2957C20.4658 7.62432 20.618 7.89633 20.7472 8.27752H13.4045C13.288 8.63982 13.1883 9.01041 13.1126 9.38836H21.0548C21.1325 9.7517 21.1923 10.0876 21.2333 10.43H12.9551C12.9204 10.7755 12.9025 11.1262 12.9025 11.4801H21.2931C21.2931 11.8518 21.2668 12.1961 21.229 12.5301H12.9551C12.9908 12.8861 13.0433 13.2357 13.1126 13.5801H21.0421C20.9603 13.9203 20.8657 14.2626 20.7471 14.6175H13.3803C13.4916 14.9766 13.6271 15.3252 13.7751 15.6654H20.2957C20.1151 16.0476 19.9103 16.3531 19.6846 16.7111H14.3076C14.5197 17.0786 14.7539 17.4293 15.0079 17.7653L18.8761 17.823C18.5464 18.2188 18.1233 18.4572 17.7378 18.8037C17.7588 18.8206 17.1215 18.8017 15.8667 18.7817C17.7756 20.7516 20.4436 21.98 23.4035 21.98C29.2027 21.98 33.9035 17.2791 33.9035 11.4801C33.9035 5.68098 29.2037 0.97998 23.4036 0.97998Z" fill="#F39F01"/>
</g>
<defs>
<clipPath id="clip0_1_5950">
<rect width="34" height="21" fill="white" transform="translate(0.299988 0.97998)"/>
</clipPath>
</defs>
</svg>
