<svg id="Слой_1" data-name="Слой 1" xmlns="http://www.w3.org/2000/svg" viewBox="0 0 2889.46 1354.36"><defs><style>.cls-1,.cls-4{fill:#fff;}.cls-2{fill:#1c1b1a;}.cls-2,.cls-3,.cls-4{fill-rule:evenodd;}.cls-3{fill:#e50b14;}</style></defs><rect class="cls-1" width="2889.46" height="1354.36"/><path class="cls-2" d="M755.41,184.79H718.78s-42.41,0-76.38,50.88L466,499.82c-9.78,14.67-21,29.33-31.47,44-7.48,10.48-12.07,10.48-19.55,0-10.45-14.66-21.69-29.32-31.47-44L207,235.67c-34-50.88-76.39-50.88-76.39-50.88H94l1.07,12c0,.06,0,.12,0,.18l56,82.61h0l207.63,306c14.85,21.89,27.87,53.15,27.87,93.08l-.32,258.81h.32c48.06,0,76.14-51.72,76.14-130.58V678.68c0-39.93,13-71.19,27.86-93.08L688.27,294.31l-.28-.19,66.4-97.86Z"/><path class="cls-2" d="M2625.53,421.91,2605.16,546.5l.25,0c39.68,6.43,78.8-31.07,89.35-96.17l4.61-12.13Z"/><path class="cls-2" d="M2586.54,226.28c0,46.54,29.69,77,74.79,77s75-30.45,75-76.26-30.25-76.75-75.31-76.75c-44.54,0-74.51,30.7-74.51,76Zm208.92,1.19c0,78.2-54.32,130.7-134.62,130.7-79.88,0-133.4-52.85-133.4-131.41,0-78.2,53.93-131.4,133.82-131.4C2740.76,95.36,2795.46,148.92,2795.46,227.47Z"/><path class="cls-2" d="M2625.53,937.49V421.91l71.89,16.33v372.9C2697.42,885.7,2665.24,937.49,2625.53,937.49Z"/><path class="cls-2" d="M1773.6,184.79l-20.33,124.59.26.06c39.68,6.42,78.77-31.08,89.33-96.19l4.59-12.12Z"/><path class="cls-2" d="M2042.46,492.43l339.46-307.64h-60.53a88.73,88.73,0,0,0-60.13,23.49L1847.9,589.68V201.13l-70.85-16.34v752.7a70.84,70.84,0,0,0,70.85-70.83V672.14l143.8-131.09,288.51,363a88.7,88.7,0,0,0,69.4,33.48h49.21Z"/><path class="cls-2" d="M2625.53,937.49h-18.11s18.11-25.46,18.11-112.59Z"/><path class="cls-2" d="M1597.26,564.51c0,234.69-163,392.2-404,392.2-239.77,0-400.41-158.57-400.41-394.32,0-234.69,161.85-394.32,401.61-394.32,238.56,0,402.78,160.69,402.78,396.44ZM870,560.27c0,201.93,128.8,334.07,324.43,334.07s325.64-132.14,325.64-330.88-131.24-333-326.86-333C1000.05,230.45,870,363.65,870,560.27Z"/><path class="cls-3" d="M913.62,560.56c0,174.85,111.53,289.27,280.93,289.27s282-114.42,282-286.52S1362.89,275,1193.49,275C1026.2,275,913.62,390.29,913.62,560.56Z"/><polygon class="cls-3" points="1648.24 278.25 842.5 832.21 832.64 820.34 1632.18 257.47 1648.24 278.25"/><polygon class="cls-3" points="1583.34 191.95 869.67 860.29 858.15 850.03 1564.36 173.81 1583.34 191.95"/><path class="cls-2" d="M1423.1,693.05a39,39,0,0,0-4.59-2c-22.81-6.89-45.73-13.45-68.4-20.75a74.18,74.18,0,0,1-19.6-9.94c-30.82-21.57-61.35-43.51-92-65.35-1.39-1-2.65-2.17-3.4-2.78,10.48-9,21.21-17.26,30.8-26.7,12.47-12.26,24-25.42,36-38.24,4.59-4.92,5.52-10.66,2.23-16.47a46.58,46.58,0,0,0-8.22-10.87c-6.05-5.75-12.56-11-19.05-16.29-6.19-5-9.43-4-9.8,4-.46,10.06-4.55,18.46-10,26.37-12.53,18.17-25.28,36.21-38,54.26-2.59,3.66-5.43,7.14-8,10.57-3.46-2.44-6.6-4.24-9.18-6.64a9.43,9.43,0,0,1-3.06-5.68c-1-17.68-2.17-35.38-2.31-53.07-.12-13.07,1.07-26.16,2-39.21.38-5.38-1.55-9.5-5.73-12.33-15.31-10.33-21.78-11.81-37.28-2.77-9.1,5.31-17.62,11.59-26.48,17.29-11.41,7.36-23.87,11.93-37.44,12.75-8,.48-16.09.09-25.79.09,2.2,5,3.41,9.23,5.68,12.73,4.17,6.48,8.9,12.62,13.54,18.79,6.28,8.35,14.55,12.15,25,10.16a13.25,13.25,0,0,0,5.34-2.4q15.62-11.84,31-24c4.26-3.39,6.78-1.57,7.79,2.6,2,8.1,4,16.27,4.81,24.52,5.16,52.77,4.79,105.71,4.33,158.65,0,2.14-.26,4.27-.47,7.52-2.63-1.53-4.41-2.6-6.23-3.62-7.44-4.15-14.81-8.51-22.45-12.29-2.09-1-5.07-.26-7.64-.32,1.08,2.62,1.78,5.51,3.35,7.8,3.23,4.71,7.45,8.8,10.31,13.7,4,6.85,6.82,14.38,10.7,21.3,4.85,8.62,10,17.14,15.52,25.32,3.6,5.31,9,6.35,15.38,4.69,11.67-3.07,18-11.44,17.92-24.82q-.64-64.47-1.39-128.94c0-2.52,0-5.05,0-9.42,5.63,2.78,10.6,4.17,14.16,7.22,11.76,10.06,23.69,20.1,34.31,31.33,18.31,19.35,35.71,39.58,53.45,59.49,5,5.57,10.84,9.68,18.38,10,24.43,1,48.86,1.86,73.31,2.24,7.48.11,15-1.3,22.47-2.55,3.08-.51,5.92-2.43,8.87-3.72Z"/><path class="cls-2" d="M1124.51,563.37c-.5-.31-1-.6-1.53-.93-5.66-3.77-11.2-3.51-16.61.49-2.56,1.9-5,4-7.64,5.71-12.08,8-24,16.23-36.37,23.84-6.6,4.08-13.78,7-22.07,5.59-4.66-.8-6.28,2-4.81,6.19,5.09,14.53,13.86,26.33,26.89,34.68,4.88,3.13,9.7,3,13.81-1.88,5.24-6.25,10.66-12.33,16-18.47.89.89,1.78,1.79,2.65,2.69-20.76,43.39-55.85,71.88-98.17,93,6.91-.73,13.53-2,20.17-3.12,30.62-5.29,58.34-15.46,79.58-40.24,19.33-22.55,36-46,41.92-75.73C1141.9,577.32,1140.07,573,1124.51,563.37Z"/><path class="cls-2" d="M1137.9,381.83c3.73,13.39,8.73,27,4.36,41.43-.39,1.26.9,3,1.42,4.55l2,.12c1.39-2.31,3.21-4.45,4.09-6.93,3.39-9.47,10-13.65,20-15.07,22.74-3.22,30.38-23.18,16.29-41.28-13.52-17.35-39.26-24.74-59.13-17.06-3.5,1.34-2.43,3.06-1.31,5.51C1129.88,362.59,1135.13,371.87,1137.9,381.83Z"/><path class="cls-3" d="M913.62,560.56c0,174.85,111.53,289.27,280.93,289.27s282-114.42,282-286.52S1362.89,275,1193.49,275C1026.2,275,913.62,390.29,913.62,560.56Z"/><polygon class="cls-3" points="1648.24 278.25 842.5 832.21 832.64 820.34 1632.18 257.47 1648.24 278.25"/><polygon class="cls-3" points="1583.34 191.95 869.67 860.29 858.15 850.03 1564.36 173.81 1583.34 191.95"/><path class="cls-4" d="M1423.1,693.05a39,39,0,0,0-4.59-2c-22.81-6.89-45.73-13.45-68.4-20.75a74.18,74.18,0,0,1-19.6-9.94c-30.82-21.57-61.35-43.51-92-65.35-1.39-1-2.65-2.17-3.4-2.78,10.48-9,21.21-17.26,30.8-26.7,12.47-12.26,24-25.42,36-38.24,4.59-4.92,5.52-10.66,2.23-16.47a46.58,46.58,0,0,0-8.22-10.87c-6.05-5.75-12.56-11-19.05-16.29-6.19-5-9.43-4-9.8,4-.46,10.06-4.55,18.46-10,26.37-12.53,18.17-25.28,36.21-38,54.26-2.59,3.66-5.43,7.14-8,10.57-3.46-2.44-6.6-4.24-9.18-6.64a9.43,9.43,0,0,1-3.06-5.68c-1-17.68-2.17-35.38-2.31-53.07-.12-13.07,1.07-26.16,2-39.21.38-5.38-1.55-9.5-5.73-12.33-15.31-10.33-21.78-11.81-37.28-2.77-9.1,5.31-17.62,11.59-26.48,17.29-11.41,7.36-23.87,11.93-37.44,12.75-8,.48-16.09.09-25.79.09,2.2,5,3.41,9.23,5.68,12.73,4.17,6.48,8.9,12.62,13.54,18.79,6.28,8.35,14.55,12.15,25,10.16a13.25,13.25,0,0,0,5.34-2.4q15.62-11.84,31-24c4.26-3.39,6.78-1.57,7.79,2.6,2,8.1,4,16.27,4.81,24.52,5.16,52.77,4.79,105.71,4.33,158.65,0,2.14-.26,4.27-.47,7.52-2.63-1.53-4.41-2.6-6.23-3.62-7.44-4.15-14.81-8.51-22.45-12.29-2.09-1-5.07-.26-7.64-.32,1.08,2.62,1.78,5.51,3.35,7.8,3.23,4.71,7.45,8.8,10.31,13.7,4,6.85,6.82,14.38,10.7,21.3,4.85,8.62,10,17.14,15.52,25.32,3.6,5.31,9,6.35,15.38,4.69,11.67-3.07,18-11.44,17.92-24.82q-.64-64.47-1.39-128.94c0-2.52,0-5.05,0-9.42,5.63,2.78,10.6,4.17,14.16,7.22,11.76,10.06,23.69,20.1,34.31,31.33,18.31,19.35,35.71,39.58,53.45,59.49,5,5.57,10.84,9.68,18.38,10,24.43,1,48.86,1.86,73.31,2.24,7.48.11,15-1.3,22.47-2.55,3.08-.51,5.92-2.43,8.87-3.72Z"/><path class="cls-4" d="M1124.51,563.37c-.5-.31-1-.6-1.53-.93-5.66-3.77-11.2-3.51-16.61.49-2.56,1.9-5,4-7.64,5.71-12.08,8-24,16.23-36.37,23.84-6.6,4.08-13.78,7-22.07,5.59-4.66-.8-6.28,2-4.81,6.19,5.09,14.53,13.86,26.33,26.89,34.68,4.88,3.13,9.7,3,13.81-1.88,5.24-6.25,10.66-12.33,16-18.47.89.89,1.78,1.79,2.65,2.69-20.76,43.39-55.85,71.88-98.17,93,6.91-.73,13.53-2,20.17-3.12,30.62-5.29,58.34-15.46,79.58-40.24,19.33-22.55,36-46,41.92-75.73C1141.9,577.32,1140.07,573,1124.51,563.37Z"/><path class="cls-4" d="M1137.9,381.83c3.73,13.39,8.73,27,4.36,41.43-.39,1.26.9,3,1.42,4.55l2,.12c1.39-2.31,3.21-4.45,4.09-6.93,3.39-9.47,10-13.65,20-15.07,22.74-3.22,30.38-23.18,16.29-41.28-13.52-17.35-39.26-24.74-59.13-17.06-3.5,1.34-2.43,3.06-1.31,5.51C1129.88,362.59,1135.13,371.87,1137.9,381.83Z"/><path class="cls-2" d="M2625.53,937.49h-18.11s18.11-25.46,18.11-112.59Z"/><path class="cls-2" d="M2631.46,1184.59a25,25,0,0,1,7.66-18.48,25.33,25.33,0,0,1,18.55-7.62,25.77,25.77,0,0,1,18.81,7.62,25.93,25.93,0,0,1,0,37,26.73,26.73,0,0,1-37.36,0A25,25,0,0,1,2631.46,1184.59Z"/><path class="cls-2" d="M762.87,1122.3c2.25,0,5.61.56,8.7.84v-9.82a111.3,111.3,0,0,0-13.75-.85c-19.37,0-41.26,8.42-52.21,23.3h-.56v-19.93H693.83v139.78h11.22v-101c10.39-18.81,26.11-32.28,57.82-32.28Zm79,66.52h119v-7.3c0-41.26-20.49-69-63.72-69-39,0-67.08,28.36-67.08,71.29,0,43.51,26.11,75.24,75.5,75.24,19.38,0,34.25-3.66,44.92-7.59v-11.22c-12.35,4.76-29.76,9-43.51,9-32.28,0-64-20.21-65.13-60.35Zm55-66.52c31.44,0,52.5,20.21,52.5,56.7H841.32c2.53-32.85,21.33-56.7,55.57-56.7Zm179.5,136.7c30,0,49.4-13.2,49.4-39.87,0-17.4-15.16-26.1-28.35-32.83-5.62-2.82-11.23-5.34-16.56-7.86-19.38-9.27-30-15.16-30-31.44,0-22.18,23.85-24.7,40.41-24.7,6.73,0,18.24,2.24,27.79,5V1117a114.85,114.85,0,0,0-30.59-4.5c-29.76,0-49.12,13.19-49.12,35.65,0,20.21,16,29.47,37.05,39.3,3.64,1.68,7.57,3.65,11.51,5.61,12.63,5.61,26.38,12.91,26.38,28.35,0,25-27.79,27.79-42.67,27.79-8.7,0-21.89-2.81-33.12-7v11.23c11.51,4.2,24.42,5.62,37.9,5.62Zm187.06,0a103.67,103.67,0,0,0,21.34-2.54v-9.25a74.32,74.32,0,0,1-16,2c-26.94,0-33.68-13.48-33.68-33.68v-89.83h49.69v-9.82H1235.1V1078l-11.23,3.08v34.8h-30.31v9.82h30.31v92.91c0,25.54,12.08,40.43,39.58,40.43Zm190.15-3.38h11.23v-87.57c0-38.45-17.4-55.58-57.26-55.58-18.8,0-34,7.3-41.26,11.23v11c9.55-6.17,22.74-12.35,39.57-12.35,30.32,0,47.72,10.38,47.72,39v14.88a141.42,141.42,0,0,0-42.39-7c-22.44,0-63.15,10.67-63.15,47.44,0,25,19.93,42.39,49.13,42.39,20.48,0,43.5-9.83,55.85-20.78h.56v17.4Zm0-69.6v39.57c-13.47,15.16-35.93,23.58-54.17,23.58-16.84,0-39.86-8.14-39.86-31.72,0-33.4,39.3-38.73,54.46-38.73,13.75,0,29.75,3.64,39.57,7.3Zm219.91,69.6V1115.84h-11.23v104.69c-11,15.73-30.59,28.64-53.89,28.64-31.44,0-43.23-13.76-43.23-50.24v-83.09h-11.23V1204c0,37.33,18.81,55,50.81,55,23.29,0,45.19-10.39,57-24.14h.56v20.76Zm158.16-133.32c2.24,0,5.6.56,8.69.84v-9.82a111.3,111.3,0,0,0-13.75-.85c-19.36,0-41.26,8.42-52.21,23.3h-.56v-19.93h-11.22v139.78h11.22v-101c10.39-18.81,26.11-32.28,57.83-32.28Zm171.63,133.32h11.22v-87.57c0-38.45-17.4-55.58-57.25-55.58-18.81,0-34,7.3-41.27,11.23v11c9.55-6.17,22.74-12.35,39.58-12.35,30.31,0,47.72,10.38,47.72,39v14.88a141.48,141.48,0,0,0-42.39-7c-22.45,0-63.15,10.67-63.15,47.44,0,25,19.92,42.39,49.12,42.39,20.48,0,43.5-9.83,55.85-20.78h.57v17.4Zm0-69.6v39.57c-13.48,15.16-35.94,23.58-54.18,23.58-16.83,0-39.85-8.14-39.85-31.72,0-33.4,39.29-38.73,54.45-38.73,13.75,0,29.76,3.64,39.58,7.3Zm209,69.6h11.23v-88.13c0-37.33-18.8-55-51.09-55-23.29,0-45.19,10.39-56.7,24.14h-.56v-20.77h-11.21v139.78h11.21V1150.93c10.67-15.72,30.6-28.63,53.9-28.63,31.16,0,43.22,13.75,43.22,50.24v83.08Zm154.23,3.38a103.58,103.58,0,0,0,21.34-2.54v-9.25a74.32,74.32,0,0,1-16,2c-26.94,0-33.68-13.48-33.68-33.68v-89.83h49.69v-9.82h-49.69V1078l-11.22,3.08v34.8h-30.32v9.82h30.32v92.91C2326.91,1244.11,2339,1259,2366.48,1259Z"/><path class="cls-2" d="M397.42,1184.59a25,25,0,0,1,7.66-18.48,25.35,25.35,0,0,1,18.55-7.62,25.77,25.77,0,0,1,18.81,7.62,25.93,25.93,0,0,1,0,37,26.73,26.73,0,0,1-37.36,0A25,25,0,0,1,397.42,1184.59Z"/></svg>