<svg width="50" height="46" fill="none" xmlns="http://www.w3.org/2000/svg"><path fill-rule="evenodd" clip-rule="evenodd" d="M47 23.1983C47 36.8793 37.4 46 23.4 46 9.4 46 0 36.681 0 23 0 9.31897 9.4 0 23.6 0 37.2.198276 47 9.51724 47 23.1983zM4.2 23c0 11.6983 7.6 19.431 19 19.431s19.2-7.7327 19.2-19.2327S34.8 3.76724 23.2 3.76724C11.8 3.76724 4.2 11.5 4.2 23z" fill="#fff"/><path fill-rule="evenodd" clip-rule="evenodd" d="M6.80005 22.9999C6.80005 33.112 13.4 39.8534 23.2 39.8534c10 0 16.6-6.7414 16.6-16.6552 0-9.9138-6.6-16.85347-16.6-16.85347-9.8 0-16.39995 6.74137-16.39995 16.65517z" fill="#E50B14"/><path fill-rule="evenodd" clip-rule="evenodd" d="M50 6.54302L2.6 38.6637l-.6-.5948L49 5.35336l1 1.18966z" fill="#E50B14"/><path fill-rule="evenodd" clip-rule="evenodd" d="M46.2001 1.58611l-42 38.86209-.6-.5948 41.4-39.456946 1.2 1.189656z" fill="#E50B14"/><path fill-rule="evenodd" clip-rule="evenodd" d="M36.8 30.7327s-.2 0-.2-.1983c-1.4-.3966-2.6-.7931-4-1.1897-.4-.1983-.8-.3965-1.2-.5948-1.8-1.1897-3.6-2.5776-5.4-3.7672l-.2-.1983c.6-.5949 1.2-.9914 1.8-1.5862.8-.7931 1.4-1.388 2.2-2.1811.2-.1982.4-.5948.2-.9913-.2-.1983-.2-.3966-.4-.5949-.4-.3965-.8-.5948-1.2-.9914-.4-.1982-.6-.1982-.6.1983 0 .5949-.2.9914-.6 1.5862-.8.9914-1.4 2.1811-2.2 3.1724-.2.1983-.4.3966-.4.5949-.2-.1983-.4-.1983-.6-.3966 0 0-.2-.1983-.2-.3965 0-.9914-.2-1.9828-.2-3.1724 0-.7931 0-1.5863.2-2.3794 0-.3965 0-.5948-.4-.7931-.8-.5948-1.2-.5948-2.2-.1982-.6.3965-1 .5948-1.6.9913-.6.3966-1.4.5949-2.2.7931h-1.6c.2.1983.2.5949.4.7931.2.3966.6.7932.8 1.1897.4.3966.8.7931 1.4.5948.2 0 .2 0 .4-.1982.6-.3966 1.2-.9914 1.8-1.388.2-.1982.4 0 .4.1983.2.3966.2.9914.2 1.3879.4 2.9742.2 6.1466.2 9.319v.3966c-.2 0-.2-.1983-.4-.1983-.4-.1983-.8-.3966-1.4-.7931h-.4c0 .1982.2.3965.2.3965.2.1983.4.5949.6.7931.2.3966.4.7931.6 1.1897.2.5948.6.9914 1 1.3879.2.3966.6.3966 1 .1983.6-.1983 1-.5948 1-1.3879v-7.5345-.5949c.4.1983.6.1983.8.3966.6.5948 1.4 1.1897 2 1.7845 1 1.1896 2 2.3793 3.2 3.3707.2.3965.6.5948 1 .5948 1.4 0 2.8.1983 4.4.1983.4 0 .8 0 1.4-.1983 0 .5948.2.5948.4.3966z" fill="#fff"/><path fill-rule="evenodd" clip-rule="evenodd" d="M19.2 23.1983s0-.1983 0 0c-.4-.1983-.8-.1983-1 0-.2.1982-.2.1982-.4.3965-.8.3966-1.4.9914-2.2 1.388-.4.1982-.8.3965-1.2.3965-.2 0-.4.1983-.2.3966.2.7931.8 1.5862 1.6 1.9827.2.1983.6.1983.8-.1983.4-.3965.6-.7931 1-.9913l.2.1982c-1.2 2.5776-3.2 4.1638-5.8 5.3535.4 0 .8-.1983 1.2-.1983 1.8-.3965 3.4-.9914 4.6-2.3793 1.2-1.3879 2.2-2.5776 2.4-4.3621 0-1.1896 0-1.5862-1-1.9827zM20 12.4914c.2.7931.6 1.5862.2 2.3794v.1982h.2c0-.1983.2-.1983.2-.3965.2-.5949.6-.7931 1.2-.7931 1.4-.1983 1.8-1.388 1-2.3793-.8-.9914-2.4-1.388-3.4-.9914-.2 0-.2.1983 0 .3965.2.5949.4.9914.6 1.5862z" fill="#fff"/><path fill-rule="evenodd" clip-rule="evenodd" d="M6.80005 22.9999C6.80005 33.112 13.4 39.8534 23.2 39.8534c10 0 16.6-6.7414 16.6-16.6552 0-9.9138-6.6-16.85347-16.6-16.85347-9.8 0-16.39995 6.74137-16.39995 16.65517z" fill="#E50B14"/><path fill-rule="evenodd" clip-rule="evenodd" d="M50 6.54302L2.6 38.6637l-.6-.5948L49 5.35336l1 1.18966z" fill="#E50B14"/><path fill-rule="evenodd" clip-rule="evenodd" d="M46.2001 1.58611l-42 38.86209-.6-.5948 41.4-39.456946 1.2 1.189656z" fill="#E50B14"/><path fill-rule="evenodd" clip-rule="evenodd" d="M36.8 30.7327s-.2 0-.2-.1983c-1.4-.3966-2.6-.7931-4-1.1897-.4-.1983-.8-.3965-1.2-.5948-1.8-1.1897-3.6-2.5776-5.4-3.7672l-.2-.1983c.6-.5949 1.2-.9914 1.8-1.5862.8-.7931 1.4-1.388 2.2-2.1811.2-.1982.4-.5948.2-.9913-.2-.1983-.2-.3966-.4-.5949-.4-.3965-.8-.5948-1.2-.9914-.4-.1982-.6-.1982-.6.1983 0 .5949-.2.9914-.6 1.5862-.8.9914-1.4 2.1811-2.2 3.1724-.2.1983-.4.3966-.4.5949-.2-.1983-.4-.1983-.6-.3966 0 0-.2-.1983-.2-.3965 0-.9914-.2-1.9828-.2-3.1724 0-.7931 0-1.5863.2-2.3794 0-.3965 0-.5948-.4-.7931-.8-.5948-1.2-.5948-2.2-.1982-.6.3965-1 .5948-1.6.9913-.6.3966-1.4.5949-2.2.7931h-1.6c.2.1983.2.5949.4.7931.2.3966.6.7932.8 1.1897.4.3966.8.7931 1.4.5948.2 0 .2 0 .4-.1982.6-.3966 1.2-.9914 1.8-1.388.2-.1982.4 0 .4.1983.2.3966.2.9914.2 1.3879.4 2.9742.2 6.1466.2 9.319v.3966c-.2 0-.2-.1983-.4-.1983-.4-.1983-.8-.3966-1.4-.7931h-.4c0 .1982.2.3965.2.3965.2.1983.4.5949.6.7931.2.3966.4.7931.6 1.1897.2.5948.6.9914 1 1.3879.2.3966.6.3966 1 .1983.6-.1983 1-.5948 1-1.3879v-7.5345-.5949c.4.1983.6.1983.8.3966.6.5948 1.4 1.1897 2 1.7845 1 1.1896 2 2.3793 3.2 3.3707.2.3965.6.5948 1 .5948 1.4 0 2.8.1983 4.4.1983.4 0 .8 0 1.4-.1983 0 .5948.2.5948.4.3966z" fill="#fff"/><path fill-rule="evenodd" clip-rule="evenodd" d="M19.2 23.1983s0-.1983 0 0c-.4-.1983-.8-.1983-1 0-.2.1982-.2.1982-.4.3965-.8.3966-1.4.9914-2.2 1.388-.4.1982-.8.3965-1.2.3965-.2 0-.4.1983-.2.3966.2.7931.8 1.5862 1.6 1.9827.2.1983.6.1983.8-.1983.4-.3965.6-.7931 1-.9913l.2.1982c-1.2 2.5776-3.2 4.1638-5.8 5.3535.4 0 .8-.1983 1.2-.1983 1.8-.3965 3.4-.9914 4.6-2.3793 1.2-1.3879 2.2-2.5776 2.4-4.3621 0-1.1896 0-1.5862-1-1.9827zM20 12.4914c.2.7931.6 1.5862.2 2.3794v.1982h.2c0-.1983.2-.1983.2-.3965.2-.5949.6-.7931 1.2-.7931 1.4-.1983 1.8-1.388 1-2.3793-.8-.9914-2.4-1.388-3.4-.9914-.2 0-.2.1983 0 .3965.2.5949.4.9914.6 1.5862z" fill="#fff"/></svg>