<svg width="46" height="15" viewBox="0 0 46 15" fill="none" xmlns="http://www.w3.org/2000/svg">
<g id="footer_bottom_two.svg" clip-path="url(#clip0_1_5956)">
<path id="Vector" d="M18.586 0.97998L16.3409 14.9515H19.9295L22.1733 0.97998H18.586ZM29.4106 6.67117C28.1565 6.05188 27.3878 5.63391 27.3878 5.00052C27.4031 4.42462 28.0379 3.83462 29.4554 3.83462C30.6213 3.80533 31.4782 4.07933 32.1283 4.35194L32.454 4.4973L32.9419 1.57412C32.233 1.30013 31.1092 0.998226 29.7209 0.998226C26.1771 0.998226 23.6817 2.84075 23.6662 5.47598C23.6369 7.42063 25.4528 8.49974 26.8117 9.14709C28.1999 9.81115 28.6725 10.2417 28.6725 10.8317C28.6572 11.7376 27.55 12.1555 26.5169 12.1555C25.0854 12.1555 24.3165 11.9403 23.1492 11.4355L22.6766 11.2202L22.1748 14.2581C23.0178 14.6328 24.5681 14.9626 26.1772 14.9795C29.9434 14.9795 32.394 13.1649 32.4249 10.3564C32.4371 8.81575 31.4796 7.63575 29.4106 6.67117ZM42.1419 1.02322H39.3655C38.5099 1.02322 37.8598 1.26931 37.4894 2.14726L32.1588 14.9515H35.925L36.9623 12.1793H41.1758L41.714 14.9626H45.0357L42.1419 1.02322ZM38.0067 9.38168C38.0794 9.38873 39.4523 4.85639 39.4523 4.85639L40.5455 9.38168H38.0067ZM13.3423 0.97998L9.8263 10.4723L9.44329 8.60032C8.79319 6.44041 6.75501 4.09328 4.48041 2.92738L7.69997 14.9375H11.497L17.1392 0.981513H13.3423V0.97998Z" fill="white"/>
<path id="Vector_2" d="M8.26011 2.78302C7.98611 1.71771 7.1123 0.999219 5.92555 0.983887H0.357332L0.299988 1.2424C4.64359 2.31323 8.28939 5.60822 9.47216 8.70757L8.26011 2.78302Z" fill="#EFC75E"/>
</g>
<defs>
<clipPath id="clip0_1_5956">
<rect width="45" height="14" fill="white" transform="translate(0.299988 0.97998)"/>
</clipPath>
</defs>
</svg>
